<svg id="svg" version="1.1" width="500" height="500" xmlns="http://www.w3.org/2000/svg" xmlns:xlink="http://www.w3.org/1999/xlink" style="display: block;"><g id="svgg"><path id="path0" d="M23.800 19.471 C 22.150 20.940,20.806 22.470,20.812 22.871 C 20.819 23.272,21.089 23.239,21.412 22.799 C 21.736 22.358,23.363 20.828,25.028 19.399 C 26.693 17.969,27.773 16.800,27.428 16.801 C 27.083 16.801,25.450 18.003,23.800 19.471 M17.786 25.600 C 17.236 26.480,17.063 27.200,17.401 27.200 C 17.739 27.200,18.465 26.480,19.014 25.600 C 19.564 24.720,19.737 24.000,19.399 24.000 C 19.061 24.000,18.335 24.720,17.786 25.600 M39.604 39.995 C 38.806 40.878,38.414 41.600,38.733 41.600 C 39.577 41.600,41.857 39.190,41.424 38.757 C 41.222 38.555,40.403 39.112,39.604 39.995 M342.602 71.600 C 342.611 73.360,342.774 73.986,342.966 72.991 C 343.157 71.996,343.150 70.556,342.950 69.791 C 342.749 69.026,342.593 69.840,342.602 71.600 M361.656 93.667 C 361.687 95.170,362.024 97.120,362.406 98.000 C 362.852 99.029,362.934 98.173,362.637 95.600 C 362.087 90.844,361.577 89.839,361.656 93.667 M372.000 92.311 C 372.000 92.474,373.617 93.932,375.593 95.552 C 377.570 97.171,378.992 98.025,378.753 97.448 C 378.353 96.479,372.000 91.647,372.000 92.311 M165.200 103.200 C 164.928 103.640,165.246 104.000,165.906 104.000 C 166.566 104.000,167.328 103.640,167.600 103.200 C 167.872 102.760,167.554 102.400,166.894 102.400 C 166.234 102.400,165.472 102.760,165.200 103.200 M185.018 108.000 C 186.137 108.880,187.321 109.600,187.649 109.600 C 187.977 109.600,187.415 108.880,186.400 108.000 C 185.385 107.120,184.202 106.400,183.770 106.400 C 183.338 106.400,183.900 107.120,185.018 108.000 M67.386 110.400 C 66.836 111.280,66.663 112.000,67.001 112.000 C 67.339 112.000,68.065 111.280,68.614 110.400 C 69.164 109.520,69.337 108.800,68.999 108.800 C 68.661 108.800,67.935 109.520,67.386 110.400 M76.800 145.739 C 76.800 146.102,77.880 146.400,79.200 146.400 C 80.520 146.400,81.600 146.261,81.600 146.091 C 81.600 145.921,80.520 145.623,79.200 145.429 C 77.880 145.236,76.800 145.375,76.800 145.739 M361.600 188.000 C 361.600 189.320,361.739 190.400,361.909 190.400 C 362.079 190.400,362.377 189.320,362.571 188.000 C 362.764 186.680,362.625 185.600,362.261 185.600 C 361.898 185.600,361.600 186.680,361.600 188.000 M278.400 242.400 C 276.752 242.928,276.682 243.052,278.000 243.108 C 278.880 243.145,280.140 242.827,280.800 242.400 C 282.202 241.494,281.229 241.494,278.400 242.400 M89.793 247.400 C 89.800 250.370,90.137 252.800,90.540 252.800 C 91.372 252.800,91.238 246.033,90.358 243.600 C 90.020 242.667,89.785 244.250,89.793 247.400 M179.139 245.336 L 177.200 247.472 179.375 245.936 C 180.571 245.091,181.561 244.130,181.575 243.800 C 181.616 242.815,181.177 243.091,179.139 245.336 M139.319 246.137 C 137.869 247.705,138.450 248.127,140.249 246.811 C 141.045 246.230,141.404 245.577,141.048 245.361 C 140.692 245.145,139.914 245.494,139.319 246.137 M90.602 256.400 C 90.611 258.160,90.774 258.786,90.966 257.791 C 91.157 256.796,91.150 255.356,90.950 254.591 C 90.749 253.826,90.593 254.640,90.602 256.400 M221.800 259.000 C 234.450 259.123,255.150 259.123,267.800 259.000 C 280.450 258.876,270.100 258.774,244.800 258.774 C 219.500 258.774,209.150 258.876,221.800 259.000 M109.308 273.309 C 108.047 274.394,107.147 275.413,107.308 275.573 C 107.468 275.733,108.632 274.976,109.892 273.891 C 111.153 272.806,112.053 271.787,111.892 271.627 C 111.732 271.467,110.568 272.224,109.308 273.309 M65.002 276.400 C 65.011 278.160,65.174 278.786,65.366 277.791 C 65.557 276.796,65.550 275.356,65.350 274.591 C 65.149 273.826,64.993 274.640,65.002 276.400 M176.072 279.767 C 174.132 281.775,172.919 283.279,173.376 283.109 C 174.410 282.724,180.800 276.951,180.800 276.402 C 180.800 275.357,179.304 276.422,176.072 279.767 M132.919 286.083 C 132.325 286.755,131.997 287.464,132.191 287.658 C 132.385 287.851,133.197 287.288,133.996 286.405 C 134.794 285.522,135.122 284.814,134.724 284.830 C 134.326 284.847,133.514 285.411,132.919 286.083 M166.058 290.324 L 163.716 293.200 166.417 290.626 C 167.903 289.210,168.956 287.916,168.759 287.750 C 168.562 287.584,167.346 288.743,166.058 290.324 M65.002 294.000 C 65.011 295.760,65.174 296.386,65.366 295.391 C 65.557 294.396,65.550 292.956,65.350 292.191 C 65.149 291.426,64.993 292.240,65.002 294.000 M64.812 299.800 C 64.806 301.230,64.938 302.400,65.107 302.400 C 65.834 302.400,66.143 299.281,65.514 298.289 C 65.045 297.548,64.821 298.032,64.812 299.800 M65.289 303.856 C 64.837 304.587,65.467 312.933,66.015 313.482 C 66.207 313.674,66.305 311.439,66.234 308.515 C 66.102 303.123,66.013 302.685,65.289 303.856 M232.392 306.392 C 233.652 307.707,234.838 308.629,235.027 308.440 C 235.444 308.023,231.511 304.000,230.687 304.000 C 230.364 304.000,231.132 305.076,232.392 306.392 M108.508 308.466 C 107.247 309.575,106.347 310.614,106.508 310.775 C 106.669 310.936,107.977 310.018,109.413 308.734 C 110.850 307.450,111.750 306.411,111.413 306.425 C 111.076 306.439,109.768 307.358,108.508 308.466 M88.111 326.427 C 87.073 327.292,86.568 328.000,86.989 328.000 C 87.410 328.000,88.585 327.280,89.600 326.400 C 91.987 324.330,90.598 324.355,88.111 326.427 M76.812 336.763 C 75.719 337.603,75.027 338.494,75.275 338.742 C 75.524 338.990,76.571 338.295,77.603 337.197 C 79.834 334.822,79.545 334.663,76.812 336.763 M263.200 337.850 C 263.200 337.988,264.370 339.158,265.800 340.450 L 268.400 342.800 266.050 340.200 C 263.860 337.776,263.200 337.232,263.200 337.850 M314.501 391.000 C 315.832 392.700,318.511 395.200,319.001 395.200 C 319.657 395.200,314.810 389.716,314.102 389.658 C 313.718 389.626,313.897 390.230,314.501 391.000 M324.604 393.200 C 324.394 394.300,324.532 395.200,324.911 395.200 C 325.290 395.200,325.600 394.300,325.600 393.200 C 325.600 392.100,325.462 391.200,325.293 391.200 C 325.125 391.200,324.814 392.100,324.604 393.200 " stroke="none" fill="#15bfff" fill-rule="evenodd"></path><path id="path1" d="M64.000 1.603 C 64.000 2.041,62.221 2.400,60.047 2.400 C 57.873 2.400,55.872 2.760,55.600 3.200 C 55.328 3.640,54.047 4.000,52.753 4.000 C 51.459 4.000,50.400 4.360,50.400 4.800 C 50.400 5.240,49.675 5.600,48.789 5.600 C 47.903 5.600,46.553 5.915,45.789 6.300 C 45.025 6.685,42.780 7.818,40.800 8.819 C 38.820 9.820,36.393 11.035,35.406 11.519 C 34.420 12.004,33.610 12.670,33.606 13.000 C 33.603 13.330,33.060 13.600,32.400 13.600 C 31.740 13.600,31.200 13.960,31.200 14.400 C 31.200 14.840,30.856 15.200,30.436 15.200 C 30.016 15.200,28.820 16.010,27.777 17.000 C 26.734 17.990,24.468 20.118,22.740 21.729 C 17.469 26.645,13.600 31.165,13.600 32.407 C 13.600 33.056,12.880 34.036,12.000 34.586 C 11.120 35.135,10.400 36.218,10.400 36.992 C 10.400 37.767,10.040 38.400,9.600 38.400 C 9.160 38.400,8.800 39.120,8.800 40.000 C 8.800 40.880,8.440 41.600,8.000 41.600 C 7.560 41.600,7.200 42.299,7.200 43.153 C 7.200 44.007,6.840 44.928,6.400 45.200 C 5.960 45.472,5.600 46.393,5.600 47.247 C 5.600 48.101,5.240 48.800,4.800 48.800 C 4.360 48.800,4.000 49.859,4.000 51.153 C 4.000 52.447,3.640 53.728,3.200 54.000 C 2.760 54.272,2.400 55.913,2.400 57.647 C 2.400 59.381,2.040 60.800,1.600 60.800 C 1.074 60.800,0.800 81.733,0.800 122.000 C 0.800 162.267,1.074 183.200,1.600 183.200 C 2.040 183.200,2.400 184.465,2.400 186.011 C 2.400 188.730,2.622 189.439,4.734 193.484 C 5.275 194.520,5.359 195.145,4.919 194.874 C 4.480 194.602,5.605 197.355,7.420 200.990 C 9.234 204.626,11.007 207.720,11.359 207.867 C 11.712 208.013,12.000 208.744,12.000 209.490 C 12.000 210.236,12.720 211.366,13.600 212.000 C 14.480 212.634,15.200 213.614,15.200 214.177 C 15.200 214.739,15.560 215.200,16.000 215.200 C 16.440 215.200,16.800 215.542,16.800 215.960 C 16.800 217.533,28.343 228.262,31.662 229.774 C 32.728 230.260,33.600 230.921,33.600 231.244 C 33.600 231.986,46.653 238.400,48.162 238.400 C 48.777 238.400,49.622 238.694,50.040 239.054 C 51.058 239.930,58.070 241.540,61.800 241.755 C 63.896 241.875,64.801 242.300,64.804 243.164 C 64.864 260.314,65.449 280.708,65.901 281.440 C 66.227 281.968,66.127 282.400,65.677 282.400 C 65.153 282.400,65.008 284.770,65.274 289.000 C 66.091 302.030,66.304 309.466,66.352 326.600 C 66.408 346.783,66.418 346.803,73.429 340.200 C 86.882 327.529,89.374 325.310,90.985 324.574 C 91.966 324.125,92.980 323.092,93.239 322.279 C 93.497 321.465,94.061 320.800,94.492 320.800 C 94.923 320.800,96.860 319.270,98.797 317.400 C 101.986 314.320,107.484 309.374,112.800 304.801 C 118.476 299.919,124.661 294.278,129.248 289.800 C 132.065 287.050,134.553 284.800,134.776 284.800 C 135.333 284.800,137.425 282.975,144.631 276.201 C 148.024 273.012,151.032 270.402,151.317 270.401 C 151.601 270.401,154.129 268.150,156.934 265.400 C 159.740 262.650,163.997 258.780,166.393 256.800 C 168.790 254.820,173.048 250.958,175.854 248.217 L 180.958 243.235 228.286 243.181 C 254.316 243.152,277.051 242.813,278.807 242.429 C 280.563 242.044,284.160 241.297,286.800 240.769 C 291.361 239.856,292.611 239.433,299.200 236.575 C 300.740 235.908,303.170 234.877,304.600 234.285 C 306.030 233.694,307.200 232.972,307.200 232.681 C 307.200 232.390,308.730 231.255,310.600 230.159 C 314.276 228.004,325.806 217.101,328.534 213.200 C 332.278 207.847,336.800 199.115,336.800 197.239 C 336.800 196.557,337.160 196.000,337.600 196.000 C 338.040 196.000,338.400 195.121,338.400 194.047 C 338.400 192.973,338.720 191.897,339.112 191.655 C 339.818 191.218,340.082 190.029,341.703 180.000 C 343.010 171.911,343.576 83.405,342.399 71.200 C 341.137 58.116,341.194 58.527,340.554 57.887 C 340.249 57.583,340.000 56.133,340.000 54.667 C 340.000 53.200,339.714 52.000,339.365 52.000 C 339.016 52.000,338.321 50.650,337.821 49.000 C 335.999 42.994,334.796 40.000,334.204 40.000 C 333.872 40.000,333.600 39.460,333.600 38.800 C 333.600 38.140,333.240 37.600,332.800 37.600 C 332.360 37.600,332.000 37.128,332.000 36.551 C 332.000 35.974,331.280 34.729,330.400 33.784 C 329.520 32.840,328.800 31.876,328.800 31.643 C 328.800 30.351,318.036 19.216,314.400 16.746 C 312.860 15.700,310.932 14.232,310.116 13.484 C 309.300 12.736,307.590 11.693,306.316 11.165 C 305.042 10.638,304.000 9.890,304.000 9.503 C 304.000 9.116,303.532 8.800,302.959 8.800 C 301.488 8.800,297.614 6.918,297.606 6.200 C 297.603 5.870,296.520 5.600,295.200 5.600 C 293.880 5.600,292.800 5.279,292.800 4.888 C 292.800 4.496,291.450 3.946,289.800 3.666 C 288.150 3.386,284.820 2.749,282.400 2.251 C 276.574 1.051,64.000 0.420,64.000 1.603 M274.701 26.241 C 274.919 26.593,276.650 26.972,278.549 27.083 C 280.447 27.195,282.342 27.626,282.760 28.043 C 283.178 28.459,284.348 28.800,285.360 28.800 C 286.372 28.800,287.200 29.160,287.200 29.600 C 287.200 30.040,287.920 30.400,288.800 30.400 C 289.680 30.400,290.400 30.718,290.400 31.107 C 290.400 31.802,293.405 33.063,294.622 32.879 C 294.965 32.827,295.453 33.328,295.708 33.993 C 295.963 34.657,296.496 35.200,296.893 35.200 C 297.289 35.200,298.601 36.074,299.807 37.143 C 301.013 38.212,302.810 39.784,303.800 40.637 C 304.790 41.490,305.600 42.419,305.600 42.701 C 305.600 42.984,306.680 44.345,308.000 45.726 C 309.320 47.107,310.400 48.724,310.400 49.319 C 310.400 49.913,310.672 50.400,311.005 50.400 C 311.337 50.400,312.081 51.570,312.657 53.000 C 313.233 54.430,314.041 56.225,314.452 56.989 C 314.864 57.753,315.200 59.031,315.200 59.829 C 315.200 60.627,315.556 61.636,315.992 62.072 C 317.102 63.182,317.128 180.792,316.018 181.902 C 315.568 182.352,315.200 183.728,315.200 184.960 C 315.200 186.192,314.840 187.200,314.400 187.200 C 313.960 187.200,313.600 187.890,313.600 188.733 C 313.600 189.577,313.330 190.387,313.000 190.533 C 312.670 190.680,311.533 192.510,310.474 194.600 C 309.415 196.690,308.245 198.400,307.874 198.400 C 307.503 198.400,307.200 198.769,307.200 199.221 C 307.200 200.217,300.326 207.200,299.345 207.200 C 298.962 207.200,297.996 207.920,297.200 208.800 C 296.404 209.680,295.433 210.400,295.043 210.400 C 294.652 210.400,293.619 211.065,292.746 211.879 C 291.873 212.692,289.638 213.837,287.779 214.423 C 285.921 215.009,284.040 215.745,283.600 216.058 C 281.652 217.446,271.683 217.814,223.104 218.292 L 171.408 218.800 168.828 220.778 C 167.409 221.866,164.328 224.566,161.981 226.778 C 156.818 231.646,152.717 235.200,152.265 235.200 C 152.082 235.200,149.082 238.080,145.600 241.600 C 142.118 245.120,139.063 248.000,138.813 248.000 C 138.562 248.000,137.197 249.053,135.779 250.339 C 134.360 251.626,132.441 253.336,131.513 254.139 C 126.293 258.660,117.486 266.639,112.902 271.000 C 110.011 273.750,107.165 276.000,106.576 276.000 C 105.987 276.000,105.728 276.360,106.000 276.800 C 106.272 277.240,106.152 277.600,105.734 277.600 C 105.316 277.600,103.225 279.325,101.087 281.433 C 96.388 286.067,91.221 290.049,91.144 289.095 C 91.113 288.713,91.062 283.270,91.030 277.000 C 90.998 270.667,90.646 265.600,90.239 265.600 C 89.836 265.600,89.797 265.150,90.153 264.600 C 90.927 263.404,91.031 252.805,90.268 252.802 C 89.975 252.801,89.736 251.090,89.737 249.000 C 89.737 246.910,89.707 239.197,89.669 231.860 L 89.600 218.521 78.600 218.098 C 65.383 217.590,59.200 216.897,59.200 215.923 C 59.200 215.525,58.300 215.200,57.200 215.200 C 56.100 215.200,55.200 214.840,55.200 214.400 C 55.200 213.960,54.480 213.600,53.600 213.600 C 52.720 213.600,52.000 213.240,52.000 212.800 C 52.000 212.360,51.280 212.000,50.400 212.000 C 49.520 212.000,48.800 211.640,48.800 211.200 C 48.800 210.760,48.437 210.400,47.993 210.400 C 46.025 210.400,34.182 198.450,32.731 195.000 C 32.222 193.790,31.490 192.800,31.103 192.800 C 30.716 192.800,30.400 191.900,30.400 190.800 C 30.400 189.700,30.040 188.800,29.600 188.800 C 29.160 188.800,28.800 188.080,28.800 187.200 C 28.800 186.320,28.440 185.600,28.000 185.600 C 27.560 185.600,27.200 184.361,27.200 182.847 C 27.200 181.333,26.840 179.872,26.400 179.600 C 25.879 179.278,25.600 159.043,25.600 121.506 C 25.600 83.309,25.869 64.072,26.400 64.400 C 26.883 64.699,27.200 63.608,27.200 61.647 C 27.200 59.861,27.560 58.400,28.000 58.400 C 28.440 58.400,28.800 57.931,28.800 57.357 C 28.800 55.840,32.678 48.297,34.039 47.168 C 34.677 46.638,35.200 45.849,35.200 45.415 C 35.200 44.000,46.475 33.600,48.009 33.600 C 48.444 33.600,48.800 33.240,48.800 32.800 C 48.800 32.360,49.520 32.000,50.400 32.000 C 51.280 32.000,52.000 31.640,52.000 31.200 C 52.000 30.760,52.720 30.400,53.600 30.400 C 54.480 30.400,55.200 30.040,55.200 29.600 C 55.200 29.160,56.280 28.800,57.600 28.800 C 58.920 28.800,60.000 28.440,60.000 28.000 C 60.000 27.560,61.779 27.200,63.953 27.200 C 66.127 27.200,68.128 26.840,68.400 26.400 C 69.001 25.428,274.101 25.269,274.701 26.241 M364.400 88.617 C 362.820 88.855,362.800 89.472,362.800 137.829 C 362.800 181.911,362.341 198.833,361.050 202.400 C 360.811 203.060,360.438 205.040,360.221 206.800 C 360.004 208.560,359.462 210.450,359.015 211.000 C 358.569 211.550,358.425 212.000,358.695 212.000 C 359.746 212.000,353.640 226.082,350.197 231.598 C 348.305 234.631,336.088 246.227,333.647 247.307 C 332.301 247.903,331.200 248.663,331.200 248.995 C 331.200 249.328,330.660 249.600,330.000 249.600 C 329.340 249.600,328.800 249.960,328.800 250.400 C 328.800 250.840,328.260 251.200,327.600 251.200 C 326.940 251.200,326.400 251.599,326.400 252.086 C 326.400 252.573,325.870 252.768,325.223 252.520 C 324.576 252.271,323.504 252.610,322.841 253.273 C 322.178 253.936,321.178 254.404,320.618 254.313 C 320.058 254.222,319.060 254.334,318.400 254.561 C 314.654 255.851,311.253 256.747,308.605 257.143 C 306.958 257.388,304.217 257.903,302.515 258.285 C 300.324 258.777,217.042 259.517,197.872 259.215 C 196.877 259.199,185.600 270.085,185.600 271.061 C 185.600 271.867,182.559 274.400,181.591 274.400 C 181.156 274.400,180.800 275.090,180.800 275.933 C 180.800 276.777,180.425 277.592,179.966 277.745 C 177.610 278.530,156.800 300.467,156.800 302.165 L 156.800 304.000 194.036 304.000 L 231.273 304.000 233.236 305.964 C 234.316 307.044,235.200 308.064,235.200 308.231 C 235.200 308.398,241.230 314.694,248.600 322.223 C 274.967 349.157,280.800 355.283,280.800 356.036 C 280.800 356.456,281.340 356.800,282.000 356.800 C 282.660 356.800,283.200 357.109,283.200 357.486 C 283.200 357.863,290.490 365.558,299.400 374.587 C 308.310 383.616,317.287 392.871,319.348 395.154 L 323.096 399.306 324.077 396.253 C 324.726 394.233,325.173 385.079,325.396 369.206 C 325.581 356.010,326.008 345.030,326.345 344.806 C 326.681 344.583,327.039 335.043,327.139 323.606 C 327.239 312.169,327.401 302.733,327.498 302.635 C 327.595 302.538,329.920 302.391,332.665 302.309 C 335.409 302.226,337.844 301.853,338.075 301.479 C 338.305 301.106,340.972 300.800,344.000 300.800 C 347.028 300.800,349.728 300.440,350.000 300.000 C 350.272 299.560,351.258 299.200,352.190 299.200 C 353.992 299.200,358.678 297.869,360.989 296.702 C 361.753 296.316,363.103 296.000,363.989 296.000 C 364.875 296.000,365.600 295.698,365.600 295.328 C 365.600 294.958,367.040 294.181,368.800 293.600 C 370.560 293.019,372.000 292.242,372.000 291.872 C 372.000 291.502,372.472 291.200,373.049 291.200 C 373.626 291.200,374.816 290.570,375.693 289.800 C 376.570 289.030,377.988 287.984,378.844 287.474 C 379.700 286.965,380.301 286.129,380.180 285.615 C 380.059 285.101,380.306 284.895,380.729 285.156 C 381.601 285.695,384.433 283.055,387.741 278.618 C 388.978 276.958,390.189 275.420,390.432 275.200 C 391.502 274.228,396.000 264.518,396.000 263.178 C 396.000 262.362,396.360 261.472,396.800 261.200 C 397.240 260.928,397.600 259.488,397.600 258.000 C 397.600 256.512,397.960 255.072,398.400 254.800 C 398.922 254.478,399.200 233.474,399.200 194.400 C 399.200 155.326,398.922 134.322,398.400 134.000 C 397.960 133.728,397.600 132.267,397.600 130.753 C 397.600 129.239,397.240 128.000,396.800 128.000 C 396.360 128.000,396.000 127.168,396.000 126.150 C 396.000 125.133,395.333 122.883,394.517 121.150 C 393.702 119.418,392.534 116.830,391.922 115.400 C 391.310 113.970,390.537 112.800,390.205 112.800 C 389.872 112.800,389.600 112.260,389.600 111.600 C 389.600 110.940,389.301 110.400,388.935 110.400 C 388.570 110.400,387.760 109.410,387.135 108.200 C 386.511 106.990,385.280 105.244,384.400 104.320 C 383.520 103.395,382.080 101.771,381.200 100.709 C 379.103 98.180,371.344 91.732,368.800 90.404 C 367.700 89.830,366.620 89.139,366.400 88.869 C 366.180 88.598,365.280 88.485,364.400 88.617 M80.800 103.200 C 80.140 103.627,78.790 103.981,77.800 103.988 C 76.810 103.994,76.000 104.360,76.000 104.800 C 76.000 105.240,75.280 105.600,74.400 105.600 C 73.520 105.600,72.800 105.960,72.800 106.400 C 72.800 106.840,72.273 107.200,71.628 107.200 C 70.984 107.200,70.086 107.892,69.633 108.738 C 69.181 109.583,68.287 110.799,67.647 111.438 C 63.902 115.184,61.219 129.881,63.970 131.582 C 64.427 131.864,64.800 132.651,64.800 133.332 C 64.800 135.815,70.881 142.625,74.400 144.084 C 75.500 144.539,76.400 144.913,76.400 144.914 C 76.400 145.374,87.064 146.870,88.571 146.621 C 103.820 144.100,112.161 125.642,103.672 113.200 C 100.277 108.224,94.540 104.000,91.176 104.000 C 90.309 104.000,89.600 103.640,89.600 103.200 C 89.600 102.175,82.385 102.175,80.800 103.200 M167.600 103.200 C 167.328 103.640,166.299 104.000,165.312 104.000 C 163.243 104.000,159.215 105.715,159.206 106.600 C 159.203 106.930,158.856 107.200,158.436 107.200 C 158.016 107.200,156.773 108.100,155.673 109.200 C 154.573 110.300,153.891 111.200,154.159 111.200 C 154.426 111.200,153.870 111.872,152.922 112.694 C 151.974 113.517,151.200 115.134,151.200 116.294 C 151.200 117.452,150.840 118.400,150.400 118.400 C 149.934 118.400,149.600 121.051,149.600 124.753 C 149.600 128.247,149.960 131.328,150.400 131.600 C 150.840 131.872,151.200 132.793,151.200 133.647 C 151.200 134.501,151.560 135.200,152.000 135.200 C 152.440 135.200,152.800 135.709,152.800 136.331 C 152.800 140.771,168.166 148.769,172.066 146.359 C 172.610 146.023,173.500 145.919,174.044 146.127 C 177.910 147.611,187.609 141.254,190.330 135.452 C 190.911 134.213,191.705 132.575,192.093 131.811 C 193.064 129.902,192.988 118.611,192.000 118.000 C 191.560 117.728,191.200 116.706,191.200 115.729 C 191.200 114.752,190.480 113.434,189.600 112.800 C 188.720 112.166,188.000 111.186,188.000 110.623 C 188.000 110.061,187.730 109.594,187.400 109.587 C 187.070 109.580,185.573 108.493,184.072 107.170 C 182.572 105.848,180.412 104.572,179.272 104.335 C 178.133 104.098,176.575 103.565,175.811 103.152 C 173.968 102.154,168.225 102.188,167.600 103.200 M252.800 103.200 C 252.800 103.640,252.091 104.000,251.224 104.000 C 247.670 104.000,238.400 111.341,238.400 114.156 C 238.400 114.730,238.128 115.200,237.795 115.200 C 233.961 115.200,235.158 132.247,239.354 137.413 C 245.545 145.035,252.662 147.765,262.159 146.161 C 265.873 145.534,271.200 142.722,271.200 141.388 C 271.200 140.918,271.420 140.753,271.689 141.022 C 272.419 141.752,275.787 137.444,277.585 133.481 C 281.156 125.612,278.340 112.483,272.244 108.582 C 271.713 108.243,270.797 107.523,270.209 106.982 C 268.380 105.304,265.691 104.000,264.058 104.000 C 263.198 104.000,262.272 103.640,262.000 103.200 C 261.728 102.760,259.547 102.400,257.153 102.400 C 254.759 102.400,252.800 102.760,252.800 103.200 " stroke="none" fill="#32ccfe" fill-rule="evenodd"></path><path id="path2" d="M89.600 241.106 C 89.600 241.766,89.960 242.528,90.400 242.800 C 90.840 243.072,91.200 242.754,91.200 242.094 C 91.200 241.434,90.840 240.672,90.400 240.400 C 89.960 240.128,89.600 240.446,89.600 241.106 M308.404 384.805 C 309.203 385.688,310.022 386.245,310.224 386.043 C 310.657 385.610,308.377 383.200,307.533 383.200 C 307.214 383.200,307.606 383.922,308.404 384.805 " stroke="none" fill="#00ffff" fill-rule="evenodd"></path><path id="path3" d="M74.200 218.192 C 76.950 218.349,81.450 218.349,84.200 218.192 C 86.950 218.036,84.700 217.908,79.200 217.908 C 73.700 217.908,71.450 218.036,74.200 218.192 M197.858 218.200 C 211.860 218.322,234.540 218.322,248.258 218.199 C 261.976 218.077,250.520 217.976,222.800 217.977 C 195.080 217.977,183.856 218.077,197.858 218.200 " stroke="none" fill="#40bfff" fill-rule="evenodd"></path><path id="path4" d="" stroke="none" fill="#0000ff" fill-rule="evenodd"></path></g></svg>